Coordinates
version=1
nRows=10
nColumns=38
inDegrees=yes

Units are S.I. units (second, meters, Newtons, ...)
Angles are in degrees.

endheader
time	pelvis_tilt	pelvis_list	pelvis_rotation	pelvis_tx	pelvis_ty	pelvis_tz	hip_flexion_r	hip_adduction_r	hip_rotation_r	knee_angle_r	ankle_angle_r	subtalar_angle_r	mtp_angle_r	hip_flexion_l	hip_adduction_l	hip_rotation_l	knee_angle_l	ankle_angle_l	subtalar_angle_l	mtp_angle_l	lumbar_extension	lumbar_bending	lumbar_rotation	arm_flex_r	arm_add_r	arm_rot_r	elbow_flex_r	pro_sup_r	wrist_flex_r	wrist_dev_r	arm_flex_l	arm_add_l	arm_rot_l	elbow_flex_l	pro_sup_l	wrist_flex_l	wrist_dev_l
      0.00000000	     -9.28103971	     -4.24424235	     86.29859789	     -0.21864801	      1.04715253	     -0.47002883	     25.62385374	    -10.25662812	      6.71674825	   -100.24822955	      2.14936709	      0.00000000	      0.00000000	     17.39039644	     12.72297534	     -2.57500896	    -38.57882544	     21.36784395	      0.00000000	      0.00000000	    -18.44248479	    -15.09158415	     -4.92898635	      0.00000000	      0.00000000	      0.00000000	     90.00000000	     90.00000000	      0.00000000	      0.00000000	      0.00000000	      0.00000000	      0.00000000	     90.00000000	     90.00000000	      0.00000000	      0.00000000
      0.00500000	     -9.16677500	     -4.40421297	     86.65259453	     -0.21952669	      1.04858686	     -0.46967660	     26.95025182	    -10.20179501	      6.27700424	    -99.83376400	      2.42649933	      0.00000000	      0.00000000	     16.04861358	     12.82193295	     -1.75591586	    -37.75167632	     21.50774498	      0.00000000	      0.00000000	    -18.36511039	    -14.68306418	     -6.15203749	      0.00000000	      0.00000000	      0.00000000	     90.00000000	     90.00000000	      0.00000000	      0.00000000	      0.00000000	      0.00000000	      0.00000000	     90.00000000	     90.00000000	      0.00000000	      0.00000000
      0.01000000	     -8.98306655	     -4.56858110	     86.99230126	     -0.22040427	      1.05028265	     -0.46945450	     28.21715873	    -10.09187280	      5.78765015	    -99.23501830	      2.66385983	      0.00000000	      0.00000000	     14.69706620	     12.81801618	     -0.94752934	    -36.88518007	     21.51703646	      0.00000000	      0.00000000	    -18.23585779	    -14.19410325	     -7.30160328	      0.00000000	      0.00000000	      0.00000000	     90.00000000	     90.00000000	      0.00000000	      0.00000000	      0.00000000	      0.00000000	      0.00000000	     90.00000000	     90.00000000	      0.00000000	      0.00000000
      0.01500000	     -8.73507259	     -4.73778746	     87.31367136	     -0.22126272	      1.05222300	     -0.46936192	     29.42485418	     -9.92740260	      5.25605434	    -98.45581253	      2.86323004	      0.00000000	      0.00000000	     13.34191263	     12.71672423	     -0.15776681	    -35.98590463	     21.39614662	      0.00000000	      0.00000000	    -18.05770027	    -13.63358605	     -8.37320089	      0.00000000	      0.00000000	      0.00000000	     90.00000000	     90.00000000	      0.00000000	      0.00000000	      0.00000000	      0.00000000	      0.00000000	     90.00000000	     90.00000000	      0.00000000	      0.00000000
      0.02000000	     -8.43000674	     -4.91248178	     87.61155639	     -0.22208034	      1.05438810	     -0.46939501	     30.57345149	     -9.70973489	      4.69192332	    -97.50099654	      3.02674300	      0.00000000	      0.00000000	     11.99117315	     12.52587677	      0.60278981	    -35.06203506	     21.14543444	      0.00000000	      0.00000000	    -17.83465933	    -13.01329141	     -9.36114156	      0.00000000	      0.00000000	      0.00000000	     90.00000000	     90.00000000	      0.00000000	      0.00000000	      0.00000000	      0.00000000	      0.00000000	     90.00000000	     90.00000000	      0.00000000	      0.00000000
      0.02500000	     -8.07667544	     -5.09350252	     87.88040637	     -0.22283659	      1.05675810	     -0.46954578	     31.66272731	     -9.44134069	      4.10621570	    -96.37586615	      3.15655568	      0.00000000	      0.00000000	     10.65375002	     12.25521460	      1.32198011	    -34.12219845	     20.76502127	      0.00000000	      0.00000000	    -17.57146410	    -12.34667024	    -10.25933667	      0.00000000	      0.00000000	      0.00000000	     90.00000000	     90.00000000	      0.00000000	      0.00000000	      0.00000000	      0.00000000	      0.00000000	     90.00000000	     90.00000000	      0.00000000	      0.00000000
      0.03000000	     -7.68500434	     -5.28183587	     88.11487832	     -0.22351662	      1.05931458	     -0.46980259	     32.69202566	     -9.12601781	      3.51009569	    -95.08573516	      3.25465807	      0.00000000	      0.00000000	      9.33846615	     11.91597250	      1.98715474	    -33.17453711	     20.25465841	      0.00000000	      0.00000000	    -17.27324047	    -11.64773206	    -11.06204773	      0.00000000	      0.00000000	      0.00000000	     90.00000000	     90.00000000	      0.00000000	      0.00000000	      0.00000000	      0.00000000	      0.00000000	     90.00000000	     90.00000000	      0.00000000	      0.00000000
      0.03500000	     -7.26550005	     -5.47848751	     88.31032395	     -0.22411330	      1.06204060	     -0.47015214	     33.66023236	     -8.76898691	      2.91395995	    -93.63566476	      3.32283877	      0.00000000	      0.00000000	      8.05321472	     11.52045880	      2.58622187	    -32.22607373	     19.61361658	      0.00000000	      0.00000000	    -16.94523622	    -10.93009926	    -11.76454894	      0.00000000	      0.00000000	      0.00000000	     90.00000000	     90.00000000	      0.00000000	      0.00000000	      0.00000000	      0.00000000	      0.00000000	     90.00000000	     90.00000000	      0.00000000	      0.00000000
      0.04000000	     -6.82861479	     -5.68420939	     88.46315372	     -0.22462516	      1.06491935	     -0.47058340	     34.56579373	     -8.37688395	      2.32658188	    -92.03031345	      3.36279008	      0.00000000	      0.00000000	      6.80434649	     11.08167964	      3.10857184	    -31.28236081	     18.84058597	      0.00000000	      0.00000000	    -16.59259565	    -10.20627712	    -12.36367438	      0.00000000	      0.00000000	      0.00000000	     90.00000000	     90.00000000	      0.00000000	      0.00000000	      0.00000000	      0.00000000	      0.00000000	     90.00000000	     90.00000000	      0.00000000	      0.00000000
      0.04500000	     -6.38412023	     -5.89915560	     88.57107437	     -0.22505203	      1.06793221	     -0.47109173	     35.40672162	     -7.95767390	      1.75442521	    -90.27385717	      3.37629585	      0.00000000	      0.00000000	      5.59634013	     10.61294496	      3.54580647	    -30.34740149	     17.93359433	      0.00000000	      0.00000000	    -16.22020513	     -9.48717138	    -12.85822838	      0.00000000	      0.00000000	      0.00000000	     90.00000000	     90.00000000	      0.00000000	      0.00000000	      0.00000000	      0.00000000	      0.00000000	     90.00000000	     90.00000000	      0.00000000	      0.00000000
